<svg xmlns="http://www.w3.org/2000/svg" viewBox="0 0 512 512" width="512" height="512">
  <defs>
    <linearGradient id="ring" x1="0" y1="0" x2="0" y2="1">
      <stop offset="0" stop-color="#FFD84D"/>
      <stop offset="1" stop-color="#F5C518"/>
    </linearGradient>
    <radialGradient id="disc" cx="50%" cy="40%" r="60%">
      <stop offset="0" stop-color="#1C1F26"/>
      <stop offset="1" stop-color="#0B0B0F"/>
    </radialGradient>
  </defs>

  <rect width="512" height="512" rx="96" fill="#0B0B0F"/>
  <circle cx="256" cy="256" r="200" fill="none" stroke="url(#ring)" stroke-width="14"/>
  <circle cx="256" cy="256" r="168" fill="url(#disc)" stroke="rgba(255,255,255,0.08)" stroke-width="2"/>

  <g stroke="rgba(245,197,24,0.55)" stroke-width="3" stroke-linecap="round">
    <line x1="256" y1="86"  x2="256" y2="100"/>
    <line x1="256" y1="412" x2="256" y2="426"/>
    <line x1="86"  y1="256" x2="100" y2="256"/>
    <line x1="412" y1="256" x2="426" y2="256"/>
    <line x1="136" y1="136" x2="146" y2="146"/>
    <line x1="376" y1="136" x2="366" y2="146"/>
    <line x1="136" y1="376" x2="146" y2="366"/>
    <line x1="376" y1="376" x2="366" y2="366"/>
  </g>

  <g transform="translate(256 256)">
    <g transform="rotate(-35)">
      <rect x="-92" y="-14" width="184" height="28" rx="14" fill="#E9ECEF"/>
      <circle cx="-104" cy="0" r="32" fill="#E9ECEF"/>
      <circle cx="-104" cy="0" r="14" fill="#0B0B0F"/>
      <circle cx=" 104" cy="0" r="32" fill="#E9ECEF"/>
      <circle cx=" 104" cy="0" r="14" fill="#0B0B0F"/>
    </g>
    <circle r="50" fill="#0B0B0F" stroke="#F5C518" stroke-width="8"/>
    <circle r="18" fill="#E63946"/>
  </g>
</svg>
